<?xml version="1.0" encoding="UTF-8" standalone="no"?>
<svg
   xmlns:dc="http://purl.org/dc/elements/1.1/"
   xmlns:cc="http://creativecommons.org/ns#"
   xmlns:rdf="http://www.w3.org/1999/02/22-rdf-syntax-ns#"
   xmlns:svg="http://www.w3.org/2000/svg"
   xmlns="http://www.w3.org/2000/svg"
   xmlns:sodipodi="http://sodipodi.sourceforge.net/DTD/sodipodi-0.dtd"
   xmlns:inkscape="http://www.inkscape.org/namespaces/inkscape"
   inkscape:version="1.0 (4035a4fb49, 2020-05-01)"
   sodipodi:docname="bjcLOGO.svg"
   viewBox="0 0 192 108"
   height="108"
   width="192"
   id="svg2"
   version="1.1">
  <metadata
     id="metadata8">
    <rdf:RDF>
      <cc:Work
         rdf:about="">
        <dc:format>image/svg+xml</dc:format>
        <dc:type
           rdf:resource="http://purl.org/dc/dcmitype/StillImage" />
        <dc:title></dc:title>
      </cc:Work>
    </rdf:RDF>
  </metadata>
  <defs
     id="defs6" />
  <sodipodi:namedview
     inkscape:current-layer="layer2"
     inkscape:window-maximized="1"
     inkscape:window-y="-9"
     inkscape:window-x="-9"
     inkscape:cy="36.958056"
     inkscape:cx="41.530224"
     inkscape:zoom="8.3600645"
     showgrid="false"
     id="namedview4"
     inkscape:window-height="1001"
     inkscape:window-width="1920"
     inkscape:pageshadow="2"
     inkscape:pageopacity="0"
     guidetolerance="10"
     gridtolerance="10"
     objecttolerance="10"
     borderopacity="1"
     bordercolor="#666666"
     pagecolor="#ffffff" />
  <g
     inkscape:label="thumb"
     id="layer1"
     inkscape:groupmode="layer">
    <path
       sodipodi:nodetypes="cccccccccccccccccccccc"
       id="path838"
       d="M 62.798558,12.320479 C 59.46567,10.003281 54.235207,10.532445 49.760381,9.9281535 c -0.968805,0.8528915 -1.971518,1.6282785 -1.854052,4.9640755 -1.748975,2.227331 -2.696666,4.514015 -0.179425,7.057362 -2.225969,3.645127 -1.607906,5.977624 0.299041,7.715251 -2.706912,3.537003 0.477611,4.864717 2.631559,6.578897 l 5.322925,-0.119616 c -0.0071,4.318403 -2.261633,8.518522 0.418657,12.978368 2.219883,2.381388 3.872447,0.791538 5.801391,1.136355 l 0.897122,-16.865898 16.626666,-0.239233 0.418657,-3.528681 -1.136355,-1.255971 2.093285,-0.239233 0.478466,-4.84446 -1.973669,-0.897122 3.169832,-0.179425 -0.179425,-4.485611 -3.767913,-0.119616 1.196163,-0.837314 -0.358849,-4.425803 z"
       style="fill:#d80000;fill-opacity:1;stroke:none;stroke-width:1px;stroke-linecap:butt;stroke-linejoin:miter;stroke-opacity:1" />
  </g>
  <g
     inkscape:label="text"
     id="layer2"
     inkscape:groupmode="layer">
    <g
       transform="translate(-70.779399,-2.5808578)"
       id="g850">
      <path
         style="fill:#e7d717;fill-opacity:1;stroke:none;stroke-width:1px;stroke-linecap:butt;stroke-linejoin:miter;stroke-opacity:1"
         d="m 127.63059,16.50705 -3.64829,17.284555 2.69136,-0.179424 3.34926,-17.224748 z"
         id="path841"
         sodipodi:nodetypes="ccccc" />
      <path
         style="fill:#e7d717;fill-opacity:1;stroke:none;stroke-width:1px;stroke-linecap:butt;stroke-linejoin:miter;stroke-opacity:1"
         d="m 126.67366,33.612181 c 4.74648,0.7792 7.06042,-0.874135 8.97123,-2.9306 0.0468,-1.455332 0.1735,-2.910663 -1.01674,-4.365995 l -1.97367,-1.854052 c -1.54392,-0.95709 -3.00512,-0.948533 -4.06696,-1.31578 l -0.83731,3.050216 3.28945,0.05981 c 1.6089,0.436381 1.54947,1.373263 1.61482,2.27271 0.3385,0.877186 -1.14979,1.754373 -2.33252,2.631559 l -3.46887,-0.05981 z"
         id="path843"
         sodipodi:nodetypes="ccccccccccc" />
      <path
         style="fill:#e7d717;fill-opacity:1;stroke:none;stroke-width:1px;stroke-linecap:butt;stroke-linejoin:miter;stroke-opacity:1"
         d="m 130.02292,16.387433 -0.59808,2.511943 c 1.57495,-0.197662 3.14989,-0.234271 4.72484,0.358849 1.72637,1.363641 -0.16492,3.594379 -2.2428,5.592062 l 2.06338,1.674628 c 1.31587,-0.881137 3.06646,-2.060871 3.58849,-3.259544 0.18714,-1.407745 0.46207,-2.727694 -0.11962,-4.904269 -0.65034,-0.686989 -1.27737,-1.381746 -2.39233,-1.913861 z"
         id="path845"
         sodipodi:nodetypes="ccccccccc" />
    </g>
    <path
       sodipodi:nodetypes="cccccccccc"
       id="path852"
       d="m 73.348302,13.515007 3.04494,0.169163 c -1.04024,5.675274 -1.44405,13.153758 -3.12952,17.000881 -3.16372,0.852592 -4.26769,0.289102 -5.70925,-0.04229 l -1.945373,-0.930396 -0.296037,-3.425551 2.49516,1e-6 1.01497,1.226433 c 1.4342,0.33702 1.71224,-0.225181 2.24141,-0.592071 z"
       style="fill:#e7d717;fill-opacity:1;stroke:none;stroke-width:1px;stroke-linecap:butt;stroke-linejoin:miter;stroke-opacity:1" />
    <path
       sodipodi:nodetypes="cccccccccccccccccccc"
       id="path854"
       d="m 72.121874,38.297385 1.987666,-0.04229 -0.08458,-1.987665 -2.325991,-1.903084 -5.117181,-0.04229 -2.706608,2.410572 0.169163,5.244053 2.24141,1.987665 5.413216,0.169163 2.410573,-2.029956 -0.04229,-1.987665 -1.776212,0.08458 -1.268722,1.437885 -3.721586,0.08458 -1.09956,-1.353304 0.126873,-2.664317 1.099559,-1.184141 3.298679,0.04229 1.057269,0.803525 z"
       style="fill:#0f32d8;fill-opacity:1;stroke:none;stroke-width:1px;stroke-linecap:butt;stroke-linejoin:miter;stroke-opacity:1" />
  </g>
</svg>
